<svg width="17" height="17" viewBox="0 0 17 17" fill="none" xmlns="http://www.w3.org/2000/svg">
<path d="M8.40104 12.01C8.67718 12.01 8.90104 11.7862 8.90104 11.51V7.51001C8.90104 7.23387 8.67718 7.01001 8.40104 7.01001C8.1249 7.01001 7.90104 7.23387 7.90104 7.51001V11.51C7.90104 11.7862 8.1249 12.01 8.40104 12.01Z" fill="#4F5F71"/>
<path d="M8.40104 4.84334C8.76923 4.84334 9.06771 5.14182 9.06771 5.51001C9.06771 5.8782 8.76923 6.17668 8.40104 6.17668C8.03285 6.17668 7.73437 5.8782 7.73437 5.51001C7.73437 5.14182 8.03285 4.84334 8.40104 4.84334Z" fill="#4F5F71"/>
<path fill-rule="evenodd" clip-rule="evenodd" d="M1.23438 8.17668C1.23438 4.21864 4.443 1.01001 8.40104 1.01001C12.3591 1.01001 15.5677 4.21864 15.5677 8.17668C15.5677 12.1347 12.3591 15.3433 8.40104 15.3433C4.443 15.3433 1.23438 12.1347 1.23438 8.17668ZM8.40104 2.01001C4.99529 2.01001 2.23437 4.77092 2.23437 8.17668C2.23437 11.5824 4.99529 14.3433 8.40104 14.3433C11.8068 14.3433 14.5677 11.5824 14.5677 8.17668C14.5677 4.77092 11.8068 2.01001 8.40104 2.01001Z" fill="#4F5F71"/>
</svg>
