<svg width="12" height="13" viewBox="0 0 12 13" fill="none" xmlns="http://www.w3.org/2000/svg">
<g clip-path="url(#clip0_496_2577)">
<path d="M6 1.30151H5.97131C4.81711 1.30151 3.9126 1.3015 3.20685 1.39639C2.48448 1.49351 1.91447 1.69618 1.46707 2.14358C1.01966 2.59099 0.816993 3.161 0.719873 3.88337C0.624989 4.58911 0.624994 5.49363 0.625 6.64782V6.7052C0.624994 7.8594 0.624989 8.76392 0.719873 9.46966C0.816993 10.192 1.01966 10.762 1.46707 11.2094C1.91447 11.6569 2.48448 11.8595 3.20685 11.9566C3.9126 12.0515 4.81712 12.0515 5.97131 12.0515H6.02869C7.18288 12.0515 8.0874 12.0515 8.79315 11.9566C9.51552 11.8595 10.0855 11.6569 10.5329 11.2094C10.9803 10.762 11.183 10.192 11.2801 9.46966C11.375 8.76392 11.375 7.8594 11.375 6.7052V6.67651C11.375 6.46941 11.2071 6.30151 11 6.30151C10.7929 6.30151 10.625 6.46941 10.625 6.67651C10.625 7.86563 10.6242 8.71974 10.5368 9.36973C10.4509 10.0089 10.2874 10.3943 10.0026 10.6791C9.71777 10.9639 9.33241 11.1274 8.69321 11.2133C8.04322 11.3007 7.18911 11.3015 6 11.3015C4.81089 11.3015 3.95678 11.3007 3.30679 11.2133C2.66759 11.1274 2.28223 10.9639 1.9974 10.6791C1.71257 10.3943 1.54912 10.0089 1.46319 9.36973C1.3758 8.71974 1.375 7.86563 1.375 6.67651C1.375 5.4874 1.3758 4.63329 1.46319 3.9833C1.54912 3.3441 1.71257 2.95874 1.9974 2.67391C2.28223 2.38908 2.66759 2.22564 3.30679 2.1397C3.95678 2.05231 4.81089 2.05151 6 2.05151C6.20711 2.05151 6.375 1.88362 6.375 1.67651C6.375 1.46941 6.20711 1.30151 6 1.30151Z" fill="#F5F3F5"/>
<path d="M6.23484 5.91135C6.08839 6.0578 6.08839 6.29523 6.23484 6.44168C6.38128 6.58813 6.61872 6.58813 6.76516 6.44168L10.625 2.58184V4.34839C10.625 4.5555 10.7929 4.72339 11 4.72339C11.2071 4.72339 11.375 4.5555 11.375 4.34839V1.67651C11.375 1.46941 11.2071 1.30151 11 1.30151H8.32812C8.12102 1.30151 7.95312 1.46941 7.95312 1.67651C7.95312 1.88362 8.12102 2.05151 8.32812 2.05151H10.0947L6.23484 5.91135Z" fill="#F5F3F5"/>
</g>
<defs>
<clipPath id="clip0_496_2577">
<rect y="0.676514" width="12" height="12" rx="2.91667" fill="white"/>
</clipPath>
</defs>
</svg>
