<svg width="42" height="16" viewBox="0 0 42 16" fill="none" xmlns="http://www.w3.org/2000/svg">
<path d="M8.5188 1.72544C4.98234 1.39237 3.93627 4.97704 1 7.06052V15.2178H41V3.29458C39.1802 4.82988 37.6205 5.34384 35.2857 5.17755C32.2301 4.95992 31.73 0.670339 28.6692 0.783956C24.6715 0.93235 25.9938 8.229 22.0526 8.94348C18.6336 9.56331 16.3383 7.06041 13.9323 5.17755C11.9502 3.62639 10.9864 1.95784 8.5188 1.72544Z" fill="url(#paint0_linear_152_7693)" fill-opacity="0.2"/>
<path d="M1 6.7989C3.93627 4.80223 4.98234 1.36693 8.5188 1.68612C10.9864 1.90884 11.9502 3.50786 13.9323 4.99439C16.3383 6.7988 18.6336 9.19741 22.0526 8.60341C25.9938 7.9187 24.6715 0.926074 28.6692 0.783863C31.73 0.674981 32.2301 4.78583 35.2857 4.99439C37.6205 5.15375 39.1802 4.66121 41 3.18988" stroke="#ED3D04" stroke-linecap="round"/>
<defs>
<linearGradient id="paint0_linear_152_7693" x1="21" y1="0.781738" x2="21" y2="15.2178" gradientUnits="userSpaceOnUse">
<stop stop-color="#ED3D04"/>
<stop offset="1" stop-color="#F7931A" stop-opacity="0"/>
</linearGradient>
</defs>
</svg>
