<svg width="15" height="13" viewBox="0 0 15 13" fill="none" xmlns="http://www.w3.org/2000/svg">
<path d="M10.9858 12.2648C10.5948 12.2648 10.2824 11.8922 10.1491 11.2648C9.56722 8.54997 9.00562 5.83012 8.44395 3.11027L8.14316 1.65549C8.02776 2.0618 7.91729 2.44858 7.80867 2.83529L7.43667 4.1759C7.21388 4.98062 6.99101 5.78471 6.76143 6.58759C6.71354 6.75705 6.56618 7.2732 6.14085 7.38492C5.71245 7.4993 5.32637 7.11496 5.19937 6.9898C4.66347 6.4613 4.13497 5.9254 3.58377 5.36741L3.11293 4.89113L0.792709 7.26912C0.674842 7.38945 0.480923 7.39377 0.358754 7.27405C0.237804 7.15619 0.235339 6.96166 0.353822 6.8401L2.89199 4.23871C2.94964 4.17921 3.02024 4.14787 3.1117 4.14664C3.19391 4.14664 3.2719 4.17983 3.32965 4.23748L4.02081 4.93729C4.56954 5.49281 5.0962 6.02625 5.63025 6.55352C5.88129 6.80086 5.98139 6.7911 5.98384 6.79171C5.98507 6.79171 6.07653 6.74876 6.17107 6.41911C6.40002 5.6181 6.62157 4.81585 6.84447 4.01297L7.21707 2.67051C7.35148 2.19236 7.48714 1.71484 7.63448 1.20105L7.8622 0.40372C7.89775 0.277838 8.00894 0.188232 8.13965 0.181553C8.28331 0.171688 8.39193 0.250915 8.44105 0.371866L8.50856 0.531452C8.5472 0.620442 8.56446 0.666479 8.57361 0.713131L9.04445 2.98732C9.60552 5.70585 10.1665 8.42385 10.749 11.1376C10.8147 11.4477 10.9394 11.6348 10.9903 11.6527C11.0283 11.6324 11.107 11.5195 11.223 11.0984C11.404 10.4349 11.5539 9.75223 11.6987 9.0918C11.7643 8.79349 11.83 8.49517 11.8981 8.19748L12.9686 3.55883C12.9999 3.4238 13.1171 3.3268 13.2559 3.32063C13.3799 3.32556 13.5193 3.40284 13.5603 3.53488L14.888 7.72606C14.939 7.88812 14.8494 8.06055 14.6886 8.11151C14.524 8.16186 14.3541 8.07287 14.3031 7.91205L13.3142 4.79076L12.4967 8.33506C12.4292 8.6303 12.3635 8.92675 12.2985 9.2226C12.1523 9.89044 12.0008 10.581 11.8166 11.255C11.7196 11.6092 11.5416 12.2585 10.9954 12.2653C10.9926 12.2649 10.9889 12.2649 10.9858 12.2649L10.9858 12.2648Z" fill="#6C7484"/>
</svg>
