<svg width="16" height="15" viewBox="0 0 16 15" fill="none" xmlns="http://www.w3.org/2000/svg">
<path d="M11.8098 14.0176C11.3949 14.0176 11.0634 13.5986 10.9219 12.893C10.3044 9.8399 9.7084 6.78114 9.11234 3.72238L8.79313 2.08632C8.67066 2.54326 8.55344 2.97824 8.43816 3.41314L8.04338 4.9208C7.80696 5.82579 7.57044 6.73008 7.3268 7.633C7.27599 7.82357 7.1196 8.40404 6.66823 8.52968C6.2136 8.65831 5.80389 8.22609 5.6691 8.08532C5.1004 7.49097 4.53954 6.8883 3.95459 6.26078L3.45493 5.72515L0.992652 8.39945C0.867569 8.53478 0.661776 8.53963 0.532129 8.405C0.403773 8.27244 0.401157 8.05368 0.526894 7.91697L3.22046 4.99143C3.28164 4.92452 3.35656 4.88927 3.45362 4.88789C3.54086 4.88789 3.62363 4.92521 3.68492 4.99005L4.41839 5.77706C5.00072 6.4018 5.55962 7.00171 6.12637 7.59468C6.39278 7.87284 6.49901 7.86186 6.5016 7.86256C6.50291 7.86256 6.59997 7.81425 6.7003 7.44352C6.94326 6.5427 7.17838 5.64048 7.41492 4.73756L7.81034 3.22783C7.95298 2.6901 8.09694 2.15308 8.25331 1.57526L8.49497 0.678577C8.5327 0.537009 8.65069 0.436238 8.78941 0.428726C8.94186 0.417632 9.05713 0.506732 9.10926 0.642753L9.1809 0.822225C9.22191 0.922304 9.24023 0.974077 9.24994 1.02654L9.7496 3.58411C10.345 6.64138 10.9403 9.69807 11.5586 12.75C11.6282 13.0987 11.7605 13.3091 11.8146 13.3292C11.855 13.3065 11.9384 13.1795 12.0615 12.7059C12.2537 11.9597 12.4126 11.192 12.5663 10.4493C12.636 10.1138 12.7057 9.77827 12.778 9.44349L13.914 4.22683C13.9472 4.07498 14.0716 3.96589 14.2189 3.95895C14.3505 3.9645 14.4984 4.0514 14.542 4.1999L15.9509 8.91333C16.005 9.09558 15.9099 9.2895 15.7393 9.3468C15.5647 9.40343 15.3843 9.30335 15.3302 9.12249L14.2808 5.61228L13.4132 9.59822C13.3416 9.93024 13.2719 10.2636 13.2028 10.5963C13.0478 11.3474 12.8869 12.124 12.6915 12.882C12.5886 13.2804 12.3997 14.0106 11.82 14.0182C11.817 14.0178 11.8131 14.0178 11.8098 14.0178L11.8098 14.0176Z" fill="#6C7484"/>
</svg>
